<svg width="256" height="254" viewBox="0 0 256 254" fill="none" xmlns="http://www.w3.org/2000/svg" xmlns:xlink="http://www.w3.org/1999/xlink">
<path d="M127.085,253.142C197.272,253.142 254.17,196.474 254.17,126.571C254.17,56.668 197.272,0 127.085,0C56.898,0 0,56.668 0,126.571C0,196.474 56.898,253.142 127.085,253.142Z" transform="rotate(0 127.085 126.571)" fill="#3F3D56"/>
<path d="M236.437,126.571C236.449,143.565 232.465,160.325 224.799,175.508C217.134,190.691 206.003,203.874 192.3,213.999C191.384,214.682 190.45,215.347 189.51,215.995C171.185,228.681 149.402,235.481 127.085,235.481C104.767,235.481 82.984,228.681 64.659,215.995C63.72,215.347 62.786,214.682 61.869,213.999C48.175,203.865 37.052,190.68 29.388,175.5C21.724,160.319 17.733,143.563 17.733,126.571C17.733,109.579 21.724,92.823 29.388,77.642C37.052,62.462 48.175,49.277 61.869,39.143C62.786,38.46 63.72,37.795 64.659,37.147C82.984,24.461 104.767,17.661 127.085,17.661C149.402,17.661 171.185,24.461 189.51,37.147C190.45,37.795 191.384,38.46 192.3,39.143C206.003,49.268 217.134,62.451 224.799,77.634C232.465,92.817 236.449,109.577 236.437,126.571L236.437,126.571Z" transform="rotate(0 127.085 126.571)" fill="#FFFFFF"/>
<path d="M127.085,226.061C182.255,226.061 226.98,181.518 226.98,126.571C226.98,71.624 182.255,27.08 127.085,27.08C71.915,27.08 27.19,71.624 27.19,126.571C27.19,181.518 71.915,226.061 127.085,226.061Z" transform="rotate(0 127.085 126.571)" fill="#8FE1D7"/>
<path d="M127.38,20.016C126.519,20.017 125.693,20.359 125.083,20.966C124.474,21.573 124.131,22.395 124.129,23.254L124.129,37.383C124.129,38.241 124.472,39.065 125.082,39.672C125.691,40.279 126.518,40.62 127.38,40.62C128.243,40.62 129.07,40.279 129.679,39.672C130.289,39.065 130.631,38.241 130.631,37.383L130.631,23.254C130.63,22.395 130.287,21.573 129.678,20.966C129.068,20.359 128.242,20.017 127.38,20.016L127.38,20.016Z" transform="rotate(0 127.38 30.318)" fill="#FFFFFF"/>
<path d="M192.3,39.143C191.384,38.46 190.45,37.795 189.51,37.147C188.946,37.11 188.382,37.221 187.875,37.468C187.367,37.715 186.932,38.089 186.614,38.554L178.628,50.228C178.143,50.938 177.961,51.81 178.121,52.654C178.282,53.497 178.773,54.242 179.485,54.726C180.198,55.209 181.074,55.391 181.921,55.23C182.768,55.07 183.516,54.582 184.001,53.872L191.987,42.198C192.291,41.755 192.479,41.244 192.533,40.71C192.588,40.177 192.508,39.638 192.3,39.143L192.3,39.143Z" transform="rotate(0 185.307 46.214)" fill="#FFFFFF"/>
<path d="M228.581,92.373C228.421,91.98 228.184,91.621 227.884,91.319C227.585,91.017 227.228,90.776 226.835,90.611C226.442,90.446 226.02,90.359 225.594,90.357C225.167,90.354 224.744,90.435 224.349,90.595L211.203,95.911C210.405,96.235 209.769,96.861 209.434,97.652C209.099,98.442 209.093,99.333 209.418,100.128C209.742,100.923 210.37,101.558 211.164,101.892C211.957,102.226 212.852,102.232 213.65,101.91L226.796,96.594C227.594,96.269 228.229,95.642 228.564,94.851C228.898,94.06 228.905,93.169 228.581,92.373Z" transform="rotate(0 218.999 96.252)" fill="#FFFFFF"/>
<path d="M75.542,50.228L67.556,38.554C67.238,38.089 66.803,37.715 66.295,37.468C65.787,37.221 65.224,37.11 64.66,37.147C63.72,37.795 62.786,38.46 61.87,39.143C61.662,39.638 61.582,40.177 61.637,40.71C61.691,41.244 61.879,41.755 62.183,42.198L70.169,53.872C70.654,54.582 71.402,55.07 72.249,55.23C73.096,55.391 73.972,55.209 74.685,54.726C75.397,54.243 75.888,53.497 76.048,52.654C76.209,51.81 76.027,50.938 75.542,50.228L75.542,50.228Z" transform="rotate(0 68.863 46.214)" fill="#FFFFFF"/>
<path d="M42.966,95.911L29.82,90.595C29.022,90.272 28.127,90.279 27.333,90.613C26.539,90.947 25.91,91.581 25.586,92.376C25.261,93.172 25.267,94.063 25.603,94.854C25.938,95.645 26.575,96.271 27.373,96.594L40.519,101.91C41.318,102.232 42.212,102.226 43.006,101.892C43.799,101.558 44.427,100.923 44.752,100.128C45.076,99.333 45.07,98.442 44.735,97.652C44.401,96.861 43.764,96.235 42.966,95.911L42.966,95.911Z" transform="rotate(0 35.169 96.252)" fill="#FFFFFF"/>
<path d="M127.38,212.521C126.519,212.523 125.693,212.865 125.083,213.471C124.474,214.078 124.131,214.901 124.129,215.759L124.129,229.888C124.129,230.747 124.472,231.57 125.082,232.178C125.691,232.785 126.518,233.126 127.38,233.126C128.243,233.126 129.07,232.785 129.679,232.178C130.289,231.57 130.631,230.747 130.631,229.888L130.631,215.759C130.63,214.901 130.287,214.078 129.678,213.471C129.068,212.865 128.242,212.523 127.38,212.521L127.38,212.521Z" transform="rotate(0 127.38 222.824)" fill="#FFFFFF"/>
<path d="M191.987,210.944L184.001,199.27C183.761,198.918 183.454,198.618 183.097,198.384C182.74,198.151 182.34,197.991 181.921,197.911C181.501,197.832 181.071,197.836 180.653,197.923C180.235,198.009 179.838,198.177 179.485,198.416C179.132,198.655 178.83,198.962 178.596,199.317C178.362,199.673 178.201,200.071 178.121,200.488C178.042,200.906 178.046,201.335 178.133,201.751C178.22,202.167 178.388,202.562 178.628,202.914L186.614,214.588C186.932,215.053 187.367,215.427 187.875,215.674C188.382,215.921 188.946,216.031 189.51,215.995C190.45,215.347 191.384,214.682 192.3,213.999C192.508,213.504 192.588,212.965 192.533,212.432C192.479,211.898 192.291,211.387 191.987,210.944Z" transform="rotate(0 185.307 206.928)" fill="#FFFFFF"/>
<path d="M226.796,156.548L213.65,151.232C212.852,150.909 211.957,150.915 211.163,151.249C210.369,151.583 209.74,152.217 209.416,153.013C209.091,153.808 209.097,154.699 209.433,155.49C209.768,156.281 210.405,156.907 211.203,157.23L224.349,162.546C225.148,162.869 226.042,162.862 226.836,162.528C227.629,162.194 228.257,161.559 228.582,160.764C228.906,159.969 228.9,159.079 228.565,158.288C228.231,157.497 227.594,156.871 226.796,156.547L226.796,156.548Z" transform="rotate(0 218.999 156.889)" fill="#FFFFFF"/>
<path d="M74.685,198.416C73.972,197.933 73.096,197.752 72.249,197.912C71.402,198.072 70.654,198.56 70.169,199.27L62.183,210.944C61.879,211.386 61.691,211.898 61.637,212.432C61.582,212.965 61.662,213.504 61.87,213.999C62.786,214.682 63.72,215.347 64.66,215.995C65.224,216.031 65.787,215.921 66.295,215.674C66.803,215.427 67.238,215.053 67.556,214.588L75.542,202.914C75.782,202.562 75.95,202.167 76.037,201.751C76.124,201.335 76.128,200.906 76.048,200.488C75.969,200.07 75.807,199.672 75.573,199.317C75.339,198.961 75.037,198.655 74.685,198.416L74.685,198.416Z" transform="rotate(0 68.863 206.928)" fill="#FFFFFF"/>
<path d="M44.752,153.01C44.591,152.616 44.354,152.258 44.055,151.955C43.755,151.653 43.398,151.412 43.005,151.247C42.612,151.082 42.19,150.996 41.764,150.993C41.337,150.99 40.914,151.071 40.519,151.232L27.373,156.548C26.576,156.871 25.939,157.497 25.604,158.288C25.27,159.079 25.264,159.97 25.588,160.765C25.913,161.56 26.54,162.194 27.334,162.528C28.128,162.862 29.022,162.869 29.821,162.546L42.967,157.231C43.764,156.905 44.4,156.278 44.734,155.487C45.069,154.696 45.075,153.805 44.752,153.01L44.752,153.01Z" transform="rotate(0 35.169 156.888)" fill="#FFFFFF"/>
<path d="M131.599,124.964C131.899,126.734 131.482,128.55 130.439,130.014C129.397,131.478 127.813,132.471 126.037,132.774L68.348,142.547C67.468,142.696 66.567,142.671 65.696,142.473C64.826,142.276 64.003,141.909 63.275,141.395C62.547,140.881 61.928,140.228 61.453,139.476C60.978,138.723 60.656,137.885 60.506,137.008C60.357,136.132 60.382,135.234 60.58,134.368C60.779,133.501 61.147,132.681 61.663,131.956C62.18,131.231 62.834,130.614 63.59,130.141C64.346,129.668 65.188,129.348 66.068,129.199L123.757,119.425C125.534,119.126 127.358,119.542 128.828,120.58C130.298,121.618 131.294,123.195 131.599,124.964L131.599,124.964Z" transform="rotate(0 96.052 130.987)" fill="#3F3D56"/>
<path d="M192.315,188.621C191.486,189.451 190.361,189.92 189.185,189.925C188.01,189.929 186.881,189.469 186.046,188.646L123.944,127.28C123.11,126.455 122.64,125.334 122.636,124.164C122.632,122.994 123.094,121.87 123.922,121.039C124.75,120.208 125.874,119.739 127.049,119.733C128.224,119.728 129.353,120.188 130.188,121.011L192.29,182.377C193.124,183.203 193.595,184.323 193.599,185.494C193.604,186.665 193.142,187.789 192.315,188.621L192.315,188.621Z" transform="rotate(0 158.117 154.829)" fill="#3F3D56"/>
<path d="M127.085,134.224C131.329,134.224 134.769,130.798 134.769,126.571C134.769,122.344 131.329,118.918 127.085,118.918C122.841,118.918 119.401,122.344 119.401,126.571C119.401,130.798 122.841,134.224 127.085,134.224Z" transform="rotate(0 127.085 126.571)" fill="#CCCCCC"/>
</svg>
