<svg width="376" height="340" viewBox="0 0 376 340" fill="none" xmlns="http://www.w3.org/2000/svg" xmlns:xlink="http://www.w3.org/1999/xlink">
<path d="M358.968,114.678L357.292,114.117L372.686,68.394C375.048,61.376 374.514,53.711 371.196,47.086C367.88,40.461 362.054,35.418 355.002,33.067L355,33.067L257.645,0.618C250.592,-1.733 242.889,-1.2 236.231,2.1C229.573,5.4 224.505,11.197 222.142,18.215L222.141,18.216L137.695,269.055C136.525,272.529 136.054,276.199 136.31,279.855C136.565,283.511 137.542,287.081 139.184,290.363C140.826,293.643 143.102,296.569 145.881,298.975C148.659,301.379 151.887,303.217 155.38,304.381L155.381,304.381L252.734,336.831C259.787,339.183 267.49,338.649 274.148,335.349C280.806,332.049 285.873,326.253 288.236,319.235L346.332,146.665L348.01,147.224L358.968,114.678Z" transform="rotate(0 255.191 168.725)" fill="#3F3D56"/>
<path d="M353.752,40.311L341.045,36.075C341.149,37.695 340.851,39.316 340.178,40.795C339.504,42.274 338.476,43.566 337.182,44.556C335.889,45.546 334.371,46.204 332.762,46.473C331.152,46.742 329.501,46.613 327.954,46.098L272.182,27.507C270.635,26.991 269.24,26.105 268.118,24.925C266.997,23.746 266.184,22.31 265.751,20.745C265.318,19.179 265.279,17.532 265.637,15.948C265.995,14.364 266.739,12.892 267.803,11.661L255.934,7.705C250.667,5.949 244.914,6.347 239.942,8.812C234.969,11.276 231.185,15.605 229.42,20.847L145.094,271.315C143.33,276.557 143.73,282.281 146.207,287.229C148.684,292.175 153.035,295.941 158.302,297.697L158.302,297.697L256.124,330.305C261.391,332.059 267.144,331.661 272.116,329.197C277.088,326.733 280.873,322.403 282.638,317.161L282.638,317.161L366.962,66.693C368.726,61.451 368.326,55.727 365.848,50.78C363.372,45.832 359.02,42.066 353.752,40.311L353.752,40.311Z" transform="rotate(0 256.028 169.004)" fill="#FFFFFF"/>
<path d="M329.289,124.34L224.895,89.543C224.383,89.372 223.96,89.005 223.719,88.524C223.478,88.042 223.438,87.485 223.609,86.975L232.284,61.207C232.457,60.697 232.825,60.276 233.309,60.036C233.793,59.797 234.353,59.758 234.865,59.928L339.26,94.725C339.772,94.897 340.196,95.264 340.437,95.745C340.678,96.226 340.717,96.783 340.546,97.293L331.871,123.061C331.698,123.571 331.33,123.991 330.846,124.231C330.362,124.471 329.803,124.51 329.29,124.34L329.289,124.34ZM234.606,60.698C234.298,60.596 233.963,60.619 233.672,60.763C233.382,60.907 233.161,61.16 233.058,61.466L224.383,87.233C224.28,87.539 224.304,87.873 224.448,88.162C224.593,88.451 224.847,88.671 225.154,88.774L329.549,123.571C329.856,123.673 330.192,123.65 330.482,123.506C330.773,123.362 330.994,123.11 331.097,122.804L339.773,97.038C339.876,96.732 339.852,96.397 339.708,96.109C339.563,95.82 339.309,95.6 339.002,95.497L234.606,60.698Z" transform="rotate(0 282.078 92.134)" fill="#3F3D56"/>
<path d="M294.966,226.293L190.572,191.496C190.059,191.325 189.636,190.958 189.395,190.476C189.154,189.995 189.115,189.438 189.286,188.928L205.344,141.232C205.516,140.722 205.884,140.301 206.368,140.061C206.852,139.822 207.412,139.783 207.924,139.953L312.319,174.749C312.832,174.921 313.255,175.287 313.496,175.769C313.737,176.25 313.776,176.807 313.605,177.317L297.547,225.014C297.374,225.524 297.006,225.945 296.522,226.184C296.038,226.424 295.479,226.463 294.966,226.293ZM207.665,140.722C207.358,140.62 207.022,140.643 206.732,140.787C206.441,140.931 206.22,141.184 206.117,141.489L190.059,189.185C189.957,189.492 189.98,189.826 190.125,190.115C190.27,190.403 190.524,190.623 190.831,190.726L295.226,225.524C295.533,225.626 295.869,225.602 296.16,225.459C296.45,225.315 296.671,225.062 296.774,224.756L312.832,177.059C312.935,176.753 312.912,176.419 312.767,176.13C312.622,175.841 312.368,175.621 312.061,175.519L207.665,140.722Z" transform="rotate(0 251.446 183.123)" fill="#3F3D56"/>
<path d="M315.044,164.094L268.648,148.627C268.135,148.455 267.712,148.089 267.471,147.607C267.23,147.126 267.191,146.569 267.362,146.059L276.037,120.291C276.21,119.782 276.578,119.361 277.062,119.121C277.546,118.881 278.105,118.842 278.618,119.012L325.015,134.479C325.528,134.651 325.951,135.017 326.192,135.499C326.433,135.98 326.472,136.537 326.301,137.047L317.626,162.815C317.454,163.325 317.086,163.746 316.601,163.986C316.117,164.226 315.557,164.265 315.044,164.094L315.044,164.094ZM278.359,119.783C278.051,119.681 277.715,119.705 277.425,119.849C277.135,119.993 276.914,120.245 276.811,120.551L268.136,146.318C268.033,146.625 268.057,146.959 268.202,147.248C268.346,147.536 268.6,147.756 268.907,147.859L315.305,163.324C315.612,163.427 315.948,163.403 316.239,163.259C316.529,163.115 316.75,162.863 316.853,162.557L325.528,136.789C325.631,136.483 325.607,136.149 325.463,135.86C325.318,135.571 325.064,135.351 324.757,135.249L278.359,119.783Z" transform="rotate(0 296.832 141.553)" fill="#E6E6E6"/>
<path d="M215.987,269.287L169.59,253.821C169.078,253.65 168.655,253.283 168.414,252.802C168.173,252.32 168.134,251.764 168.305,251.253L184.492,203.172C184.664,202.662 185.033,202.241 185.517,202.001C186,201.762 186.56,201.723 187.073,201.893L233.47,217.358C233.982,217.53 234.405,217.896 234.646,218.378C234.887,218.859 234.926,219.416 234.755,219.926L218.567,268.008C218.395,268.517 218.027,268.938 217.543,269.178C217.059,269.418 216.499,269.457 215.987,269.287L215.987,269.287ZM186.812,202.662C186.505,202.56 186.169,202.583 185.879,202.727C185.588,202.871 185.367,203.124 185.264,203.43L169.076,251.511C168.974,251.817 168.997,252.151 169.142,252.44C169.287,252.729 169.54,252.949 169.848,253.051L216.246,268.517C216.553,268.619 216.889,268.596 217.179,268.452C217.47,268.308 217.691,268.055 217.794,267.75L233.981,219.668C234.084,219.362 234.06,219.028 233.916,218.739C233.771,218.45 233.517,218.23 233.21,218.128L186.812,202.662Z" transform="rotate(0 201.53 235.59)" fill="#E6E6E6"/>
<path d="M273.21,288.361L226.812,272.895C226.3,272.724 225.877,272.357 225.636,271.876C225.395,271.394 225.356,270.837 225.527,270.327L241.714,222.246C241.886,221.736 242.255,221.315 242.738,221.075C243.222,220.835 243.782,220.796 244.295,220.967L290.693,236.432C291.205,236.604 291.628,236.97 291.869,237.452C292.11,237.933 292.149,238.49 291.978,239L275.791,287.081C275.619,287.591 275.25,288.012 274.767,288.252C274.283,288.492 273.723,288.531 273.21,288.361L273.21,288.361ZM244.036,221.736C243.728,221.634 243.392,221.657 243.102,221.801C242.812,221.945 242.591,222.198 242.488,222.504L226.3,270.585C226.197,270.891 226.221,271.225 226.366,271.514C226.51,271.803 226.764,272.023 227.072,272.126L273.469,287.592C273.777,287.694 274.113,287.671 274.403,287.527C274.693,287.383 274.914,287.13 275.018,286.824L291.205,238.743C291.307,238.437 291.284,238.103 291.139,237.814C290.995,237.525 290.741,237.305 290.433,237.202L244.036,221.736Z" transform="rotate(0 258.752 254.664)" fill="#E6E6E6"/>
<path d="M217.683,170.261C222.27,170.261 225.989,166.561 225.989,161.997C225.989,157.433 222.27,153.733 217.683,153.733C213.097,153.733 209.378,157.433 209.378,161.997C209.378,166.561 213.097,170.261 217.683,170.261Z" transform="rotate(0 217.683 161.997)" fill="#8FE1D7"/>
<path d="M237.628,162.836C237.28,162.72 236.9,162.746 236.571,162.909C236.243,163.072 235.992,163.358 235.876,163.704C235.759,164.051 235.786,164.429 235.949,164.756C236.113,165.083 236.401,165.332 236.749,165.448L298.624,186.072C298.796,186.129 298.978,186.153 299.159,186.14C299.341,186.127 299.518,186.08 299.681,185.999C299.843,185.918 299.988,185.806 300.108,185.67C300.227,185.534 300.318,185.375 300.376,185.204C300.434,185.032 300.457,184.851 300.444,184.67C300.432,184.49 300.384,184.314 300.302,184.152C300.221,183.99 300.109,183.846 299.972,183.727C299.835,183.608 299.676,183.517 299.503,183.46L299.503,183.46L237.628,162.836Z" transform="rotate(0 268.126 174.454)" fill="#E6E6E6"/>
<path d="M234.991,170.671C234.819,170.614 234.637,170.591 234.456,170.603C234.274,170.616 234.097,170.664 233.935,170.744C233.772,170.825 233.627,170.937 233.507,171.073C233.388,171.21 233.297,171.368 233.239,171.54C233.181,171.711 233.158,171.892 233.171,172.073C233.183,172.253 233.232,172.429 233.313,172.591C233.394,172.753 233.506,172.898 233.643,173.016C233.78,173.135 233.94,173.226 234.112,173.283L260.737,182.158C260.909,182.216 261.091,182.239 261.273,182.226C261.454,182.214 261.631,182.166 261.794,182.085C261.956,182.004 262.102,181.893 262.221,181.756C262.34,181.62 262.431,181.461 262.489,181.29C262.547,181.118 262.57,180.937 262.557,180.757C262.545,180.576 262.497,180.4 262.416,180.238C262.335,180.076 262.222,179.932 262.085,179.813C261.948,179.694 261.789,179.604 261.616,179.546L261.616,179.546L234.991,170.671Z" transform="rotate(0 247.864 176.415)" fill="#E6E6E6"/>
<path d="M206.546,175.122C205.548,174.79 204.538,175.105 204.296,175.827C204.053,176.549 204.669,177.403 205.667,177.736L291.036,206.192C292.034,206.524 293.044,206.209 293.286,205.487C293.528,204.766 292.913,203.911 291.915,203.578L206.546,175.122Z" transform="rotate(0 248.791 190.657)" fill="#E6E6E6"/>
<path d="M203.908,182.959C202.91,182.626 201.9,182.941 201.658,183.663C201.415,184.385 202.031,185.24 203.029,185.573L288.398,214.028C289.396,214.361 290.406,214.046 290.648,213.324C290.891,212.602 290.275,211.747 289.277,211.414L203.908,182.959Z" transform="rotate(0 246.153 198.494)" fill="#E6E6E6"/>
<path d="M246.434,87.418C251.021,87.418 254.739,83.718 254.739,79.154C254.739,74.59 251.021,70.89 246.434,70.89C241.847,70.89 238.129,74.59 238.129,79.154C238.129,83.718 241.847,87.418 246.434,87.418Z" transform="rotate(0 246.434 79.154)" fill="#8FE1D7"/>
<path d="M266.38,79.992C266.207,79.935 266.025,79.911 265.844,79.924C265.662,79.936 265.485,79.984 265.323,80.065C265.16,80.146 265.015,80.257 264.895,80.394C264.776,80.53 264.685,80.689 264.627,80.86C264.569,81.032 264.546,81.213 264.559,81.394C264.571,81.574 264.62,81.75 264.701,81.912C264.782,82.074 264.894,82.218 265.031,82.337C265.168,82.456 265.328,82.547 265.5,82.604L265.5,82.604L327.375,103.228C327.547,103.286 327.73,103.309 327.911,103.296C328.092,103.284 328.269,103.236 328.432,103.155C328.595,103.074 328.74,102.963 328.859,102.826C328.978,102.69 329.07,102.531 329.127,102.36C329.185,102.188 329.208,102.007 329.196,101.827C329.183,101.646 329.135,101.47 329.054,101.308C328.973,101.146 328.861,101.002 328.723,100.883C328.586,100.764 328.427,100.674 328.255,100.616L328.255,100.616L266.38,79.992Z" transform="rotate(0 296.877 91.61)" fill="#E6E6E6"/>
<path d="M263.742,87.828C263.569,87.771 263.387,87.748 263.206,87.76C263.025,87.773 262.848,87.821 262.685,87.901C262.522,87.982 262.377,88.094 262.258,88.23C262.138,88.367 262.047,88.525 261.99,88.697C261.932,88.868 261.909,89.049 261.921,89.23C261.934,89.41 261.982,89.587 262.063,89.748C262.144,89.91 262.256,90.055 262.394,90.173C262.531,90.292 262.69,90.383 262.862,90.44L289.487,99.315C289.66,99.373 289.842,99.396 290.023,99.383C290.204,99.371 290.381,99.323 290.544,99.242C290.707,99.161 290.852,99.05 290.971,98.913C291.091,98.777 291.182,98.618 291.239,98.447C291.297,98.275 291.32,98.094 291.308,97.914C291.295,97.733 291.247,97.557 291.166,97.395C291.085,97.233 290.973,97.089 290.835,96.97C290.698,96.851 290.539,96.761 290.367,96.703L263.742,87.828Z" transform="rotate(0 276.615 93.572)" fill="#E6E6E6"/>
<path d="M257.78,145.011L214.255,130.503L230.441,116.264C230.731,116.008 231.084,115.834 231.463,115.757C231.843,115.68 232.236,115.704 232.603,115.826C232.97,115.949 233.298,116.165 233.555,116.454C233.811,116.743 233.987,117.094 234.064,117.471L235.901,126.471L247.658,116.127C248.021,115.807 248.462,115.589 248.937,115.493C249.413,115.397 249.905,115.427 250.364,115.58C250.824,115.733 251.235,116.004 251.556,116.366C251.877,116.727 252.097,117.166 252.194,117.639L257.78,145.011ZM215.853,130.18L256.7,143.795L251.394,117.802C251.326,117.469 251.171,117.16 250.945,116.905C250.719,116.651 250.429,116.46 250.105,116.352C249.781,116.244 249.434,116.223 249.1,116.29C248.765,116.358 248.454,116.512 248.198,116.737L235.383,128.01L233.265,117.633C233.216,117.395 233.106,117.174 232.944,116.992C232.782,116.81 232.575,116.674 232.344,116.597C232.113,116.519 231.865,116.504 231.626,116.553C231.386,116.601 231.164,116.711 230.982,116.872L215.853,130.18Z" transform="rotate(0 236.017 130.224)" fill="#E6E6E6"/>
<path d="M257.822,145.02L211.425,129.555C210.913,129.383 210.489,129.017 210.248,128.535C210.007,128.054 209.968,127.497 210.139,126.987L218.814,101.219C218.986,100.71 219.355,100.289 219.839,100.049C220.322,99.809 220.882,99.77 221.395,99.94L267.793,115.406C268.305,115.578 268.728,115.944 268.969,116.426C269.21,116.907 269.249,117.464 269.078,117.974L260.403,143.741C260.231,144.251 259.862,144.672 259.379,144.912C258.895,145.151 258.335,145.19 257.822,145.02L257.822,145.02ZM221.136,100.709C220.828,100.607 220.493,100.631 220.202,100.775C219.912,100.918 219.691,101.171 219.588,101.477L210.913,127.244C210.81,127.55 210.834,127.885 210.979,128.173C211.123,128.462 211.377,128.682 211.685,128.785L258.082,144.251C258.39,144.353 258.726,144.329 259.016,144.185C259.306,144.042 259.528,143.789 259.631,143.483L268.306,117.716C268.408,117.41 268.385,117.075 268.24,116.787C268.096,116.498 267.842,116.278 267.534,116.175L221.136,100.709Z" transform="rotate(0 239.609 122.48)" fill="#E6E6E6"/>
<path d="M193.619,215.103C193.447,215.045 193.265,215.022 193.083,215.034C192.902,215.046 192.724,215.094 192.561,215.175C192.399,215.256 192.253,215.367 192.134,215.504C192.014,215.64 191.923,215.799 191.865,215.971C191.807,216.142 191.784,216.324 191.797,216.504C191.81,216.685 191.858,216.861 191.939,217.023C192.02,217.185 192.133,217.33 192.27,217.448C192.408,217.567 192.567,217.658 192.74,217.715L219.365,226.59C219.713,226.705 220.093,226.679 220.421,226.516C220.749,226.353 220.999,226.067 221.115,225.721C221.232,225.375 221.206,224.997 221.042,224.67C220.879,224.343 220.592,224.094 220.244,223.978L193.619,215.103Z" transform="rotate(0 206.49 220.846)" fill="#E6E6E6"/>
<path d="M191.029,222.797C190.856,222.74 190.674,222.716 190.493,222.729C190.311,222.741 190.134,222.789 189.971,222.869C189.808,222.95 189.663,223.062 189.543,223.198C189.424,223.335 189.333,223.494 189.275,223.665C189.217,223.837 189.194,224.018 189.207,224.199C189.219,224.379 189.268,224.556 189.349,224.718C189.43,224.88 189.543,225.024 189.68,225.143C189.817,225.261 189.977,225.352 190.149,225.409L216.775,234.286C217.123,234.401 217.502,234.374 217.83,234.211C218.158,234.048 218.407,233.762 218.523,233.416C218.64,233.071 218.614,232.693 218.451,232.366C218.288,232.04 218.001,231.791 217.654,231.674L191.029,222.797Z" transform="rotate(0 203.899 228.541)" fill="#E6E6E6"/>
<path d="M266.662,275.151C267.01,275.266 267.39,275.24 267.718,275.077C268.046,274.914 268.296,274.628 268.413,274.282C268.529,273.936 268.503,273.558 268.339,273.231C268.176,272.904 267.889,272.655 267.541,272.539L240.916,263.664C240.569,263.548 240.189,263.575 239.86,263.738C239.532,263.901 239.282,264.187 239.166,264.533C239.049,264.879 239.076,265.257 239.239,265.584C239.402,265.91 239.689,266.159 240.037,266.276L266.662,275.151Z" transform="rotate(0 253.789 269.407)" fill="#E6E6E6"/>
<path d="M269.252,267.455C269.425,267.513 269.607,267.536 269.788,267.524C269.97,267.512 270.147,267.464 270.31,267.383C270.473,267.302 270.618,267.191 270.738,267.054C270.857,266.918 270.948,266.759 271.006,266.587C271.064,266.416 271.087,266.234 271.074,266.054C271.062,265.873 271.013,265.697 270.932,265.535C270.851,265.373 270.738,265.228 270.601,265.11C270.464,264.991 270.304,264.9 270.132,264.843L243.507,255.968C243.334,255.911 243.152,255.887 242.971,255.9C242.789,255.912 242.612,255.96 242.449,256.04C242.286,256.121 242.141,256.233 242.021,256.369C241.902,256.506 241.81,256.665 241.753,256.836C241.695,257.008 241.672,257.189 241.684,257.37C241.697,257.55 241.745,257.727 241.827,257.889C241.908,258.051 242.02,258.195 242.158,258.314C242.295,258.432 242.455,258.523 242.627,258.58L269.252,267.455Z" transform="rotate(0 256.379 261.712)" fill="#E6E6E6"/>
<path d="M310.836,144.205C311.009,144.262 311.191,144.286 311.372,144.273C311.554,144.261 311.731,144.213 311.894,144.132C312.057,144.052 312.202,143.94 312.322,143.804C312.441,143.667 312.532,143.508 312.59,143.337C312.648,143.165 312.671,142.984 312.658,142.803C312.646,142.623 312.597,142.446 312.516,142.284C312.435,142.122 312.322,141.978 312.185,141.859C312.048,141.74 311.888,141.65 311.716,141.593L285.091,132.718C284.918,132.66 284.736,132.637 284.555,132.649C284.373,132.661 284.196,132.709 284.033,132.79C283.87,132.87 283.725,132.982 283.605,133.119C283.486,133.255 283.395,133.414 283.337,133.586C283.279,133.757 283.256,133.938 283.268,134.119C283.281,134.3 283.329,134.476 283.411,134.638C283.492,134.8 283.604,134.944 283.742,135.063C283.879,135.182 284.039,135.272 284.211,135.33L310.836,144.205Z" transform="rotate(0 297.963 138.461)" fill="#E6E6E6"/>
<path d="M308.624,150.368C308.796,150.425 308.978,150.449 309.16,150.436C309.341,150.424 309.519,150.376 309.682,150.295C309.844,150.215 309.99,150.103 310.109,149.967C310.229,149.83 310.32,149.671 310.378,149.5C310.436,149.328 310.459,149.147 310.446,148.966C310.433,148.786 310.385,148.609 310.304,148.447C310.223,148.285 310.11,148.141 309.973,148.022C309.835,147.903 309.676,147.813 309.503,147.756L282.878,138.881C282.706,138.823 282.524,138.8 282.342,138.812C282.161,138.824 281.983,138.872 281.82,138.953C281.658,139.033 281.512,139.145 281.393,139.282C281.273,139.418 281.182,139.577 281.124,139.749C281.067,139.92 281.043,140.102 281.056,140.282C281.069,140.463 281.117,140.639 281.198,140.801C281.279,140.963 281.392,141.107 281.529,141.226C281.667,141.345 281.826,141.435 281.999,141.493L308.624,150.368Z" transform="rotate(0 295.751 144.624)" fill="#E6E6E6"/>
<path d="M85.652,135.193C93.429,135.193 99.733,128.92 99.733,121.182C99.733,113.444 93.429,107.171 85.652,107.171C77.875,107.171 71.571,113.444 71.571,121.182C71.571,128.92 77.875,135.193 85.652,135.193Z" transform="rotate(0 85.652 121.182)" fill="#9F616A"/>
<path d="M77.513,122.916C78.629,122.849 79.719,123.224 80.827,123.371C84.793,123.895 88.918,121.032 89.794,117.148C89.864,116.631 90.019,116.128 90.253,115.661C90.863,114.669 92.253,114.48 93.399,114.708C94.545,114.936 95.631,115.47 96.798,115.531C98.6,115.625 100.33,114.521 101.29,113.001C102.198,111.433 102.584,109.62 102.393,107.82L101.529,108.722C101.178,107.983 101.042,107.161 101.138,106.35C100.68,106.228 100.199,106.226 99.74,106.343C99.281,106.46 98.86,106.692 98.517,107.017C97.755,107.098 98.33,105.611 97.765,105.098C97.489,104.93 97.161,104.869 96.844,104.927C95.223,104.942 93.912,103.709 92.636,102.716C90.423,101 87.836,99.826 85.084,99.289C83.254,98.933 81.309,98.877 79.574,99.553C78.173,100.178 76.909,101.071 75.852,102.179C73.136,104.776 70.73,107.833 69.6,111.41C68.681,114.34 68.655,117.476 69.525,120.42C69.981,121.95 71.353,127.187 73.363,127.309C75.885,127.464 74.37,123.102 77.513,122.916Z" transform="rotate(0 85.666 113.172)" fill="#2F2E41"/>
<path d="M58.014,233.361C58.795,232.828 59.449,232.132 59.93,231.32C60.411,230.509 60.707,229.602 60.798,228.664C60.889,227.727 60.772,226.781 60.456,225.893C60.139,225.005 59.631,224.197 58.967,223.525L61.479,167.725L48.689,169.153L49.432,223.736C48.372,224.921 47.786,226.451 47.784,228.038C47.783,229.624 48.367,231.156 49.425,232.343C50.483,233.529 51.941,234.289 53.524,234.477C55.108,234.665 56.705,234.268 58.014,233.363L58.014,233.361Z" transform="rotate(0 54.632 201.124)" fill="#A0616A"/>
<path d="M81.347,327.818L88.627,329.092L95.822,301.756L86.284,299.877L81.347,327.818Z" transform="rotate(0 88.584 314.484)" fill="#A0616A"/>
<path d="M101.427,338.285L78.546,334.263L80.107,325.466L94.148,327.934C96.493,328.346 98.577,329.668 99.942,331.61C101.307,333.551 101.841,335.952 101.427,338.285L101.427,338.285Z" transform="rotate(0 90.055 331.876)" fill="#2F2E41"/>
<path d="M61.366,331.445L68.757,331.445L72.273,303.077L61.365,303.077L61.366,331.445Z" transform="rotate(0 66.819 317.261)" fill="#A0616A"/>
<path d="M83.005,338.273L59.775,338.273L59.775,329.343L74.03,329.343C76.41,329.343 78.693,330.284 80.376,331.959C82.06,333.633 83.005,335.905 83.005,338.273Z" transform="rotate(0 71.39 333.808)" fill="#2F2E41"/>
<path d="M92.204,321.277C92.089,321.277 91.974,321.27 91.859,321.257L83.159,320.544C82.384,320.454 81.677,320.061 81.194,319.451C80.71,318.842 80.49,318.066 80.581,317.295C80.586,317.246 80.593,317.198 80.602,317.149L89.24,274.748L83.812,246.269C83.768,246.037 83.642,245.829 83.456,245.683C83.27,245.537 83.037,245.463 82.8,245.475C82.563,245.487 82.339,245.583 82.168,245.747C81.998,245.91 81.892,246.13 81.872,246.365L73.878,318.729C73.804,319.491 73.435,320.195 72.849,320.691C72.263,321.188 71.506,321.439 70.738,321.39L62.542,321.087C61.823,321.036 61.149,320.726 60.645,320.214C60.141,319.702 59.843,319.024 59.807,318.309L60.462,230.864L102.954,225.579L105.922,271.195L105.911,271.244L95.063,319.04C94.907,319.677 94.541,320.244 94.022,320.65C93.504,321.055 92.864,321.276 92.204,321.277L92.204,321.277Z" transform="rotate(0 82.865 273.488)" fill="#2F2E41"/>
<path d="M88.423,237.519C86.107,237.533 83.834,236.886 81.876,235.655C74.703,231.195 66.556,232.968 62.338,234.423C61.92,234.569 61.473,234.619 61.033,234.569C60.592,234.519 60.168,234.37 59.794,234.135C59.423,233.903 59.11,233.591 58.878,233.222C58.646,232.853 58.5,232.437 58.453,232.004L50.784,163.84C49.498,152.419 56.412,141.682 67.223,138.309C67.629,138.182 68.042,138.062 68.462,137.949C71.826,137.041 75.35,136.878 78.784,137.471C82.218,138.065 85.48,139.399 88.34,141.382C91.254,143.386 93.691,146.001 95.479,149.043C97.267,152.085 98.364,155.48 98.692,158.989L105.151,227.609C105.194,228.053 105.134,228.502 104.973,228.919C104.813,229.336 104.558,229.711 104.227,230.013C101.964,232.097 95.394,237.518 88.423,237.519Z" transform="rotate(0 77.898 187.32)" fill="#8FE1D7"/>
<path d="M65.067,178.456L47.762,176.563C47.269,176.51 46.794,176.351 46.369,176.098C45.944,175.845 45.579,175.504 45.298,175.097C45.018,174.691 44.828,174.23 44.743,173.744C44.658,173.259 44.679,172.761 44.804,172.284L49.209,155.579C49.342,154.335 49.72,153.128 50.322,152.029C50.924,150.93 51.737,149.96 52.716,149.174C53.695,148.387 54.82,147.801 56.026,147.448C57.233,147.094 58.498,146.981 59.749,147.115C60.999,147.248 62.211,147.625 63.315,148.225C64.419,148.825 65.394,149.635 66.183,150.609C66.972,151.584 67.561,152.704 67.915,153.905C68.269,155.106 68.381,156.365 68.246,157.609C68.242,157.645 68.238,157.681 68.234,157.717L68.888,174.918C68.906,175.411 68.818,175.902 68.629,176.357C68.44,176.813 68.154,177.222 67.791,177.558C67.429,177.894 66.998,178.148 66.527,178.303C66.057,178.458 65.559,178.51 65.067,178.456L65.067,178.456Z" transform="rotate(0 56.791 162.769)" fill="#8FE1D7"/>
<path d="M105.078,230.972C105.789,230.349 106.354,229.579 106.734,228.716C107.113,227.853 107.297,226.917 107.274,225.975C107.251,225.034 107.02,224.108 106.599,223.265C106.177,222.421 105.575,221.68 104.834,221.093L100.57,165.398L88.037,168.205L95.394,222.444C94.486,223.747 94.09,225.337 94.28,226.912C94.471,228.486 95.236,229.937 96.43,230.988C97.624,232.039 99.163,232.618 100.757,232.615C102.351,232.612 103.889,232.027 105.079,230.972L105.078,230.972Z" transform="rotate(0 97.656 199.006)" fill="#A0616A"/>
<path d="M83.231,174.955C82.868,174.619 82.582,174.209 82.393,173.754C82.204,173.298 82.116,172.807 82.135,172.314L82.789,155.112C82.519,152.61 83.256,150.103 84.839,148.139C86.421,146.175 88.72,144.915 91.233,144.632C93.747,144.35 96.27,145.069 98.253,146.632C100.235,148.195 101.516,150.475 101.814,152.975L106.218,169.679C106.344,170.156 106.365,170.654 106.28,171.14C106.195,171.625 106.005,172.087 105.724,172.493C105.444,172.899 105.079,173.24 104.653,173.493C104.228,173.746 103.753,173.905 103.261,173.959L85.956,175.852C85.464,175.906 84.965,175.853 84.495,175.698C84.025,175.543 83.594,175.289 83.231,174.953L83.231,174.955Z" transform="rotate(0 94.232 160.222)" fill="#8FE1D7"/>
<path d="M326.407,338.285L-0.165,338.285L-0.165,339.165L326.407,339.165L326.407,338.285Z" transform="rotate(0 163.121 338.725)" fill="#CACACA"/>
</svg>
