<svg width="350" height="320" viewBox="0 0 350 320" fill="none" xmlns="http://www.w3.org/2000/svg" xmlns:xlink="http://www.w3.org/1999/xlink">
<path d="M335.808,108.718L334.24,108.19L348.634,65.157C350.844,58.552 350.344,51.338 347.242,45.102C344.142,38.867 338.694,34.121 332.098,31.908L332.098,31.907L241.066,1.368C234.47,-0.845 227.268,-0.344 221.042,2.762C214.816,5.868 210.077,11.324 207.868,17.929L207.868,17.931L128.906,254.013C127.812,257.283 127.372,260.737 127.611,264.179C127.85,267.619 128.763,270.979 130.299,274.067C131.834,277.155 133.962,279.909 136.56,282.173C139.158,284.437 142.176,286.167 145.442,287.261L145.443,287.263L236.473,317.803C243.068,320.017 250.27,319.515 256.496,316.409C262.722,313.303 267.46,307.847 269.67,301.241L323.993,138.824L325.562,139.35L335.808,108.718Z" transform="rotate(0 238.77 159.586)" fill="#3F3D56"/>
<path d="M330.93,38.725L319.048,34.739C319.146,36.264 318.867,37.789 318.238,39.181C317.608,40.573 316.646,41.789 315.437,42.721C314.227,43.653 312.808,44.273 311.303,44.526C309.798,44.779 308.254,44.657 306.808,44.172L254.658,26.675C253.212,26.189 251.907,25.355 250.858,24.245C249.809,23.135 249.049,21.784 248.645,20.31C248.24,18.837 248.204,17.287 248.538,15.796C248.873,14.305 249.568,12.919 250.563,11.761L239.465,8.037C234.54,6.385 229.161,6.76 224.512,9.079C219.862,11.399 216.323,15.473 214.673,20.406L135.825,256.141C134.175,261.075 134.549,266.461 136.865,271.119C139.181,275.775 143.249,279.319 148.175,280.971L148.175,280.971L239.643,311.661C244.568,313.313 249.947,312.937 254.596,310.619C259.246,308.299 262.785,304.225 264.435,299.291L264.435,299.291L343.281,63.556C344.931,58.623 344.557,53.235 342.241,48.579C339.925,43.922 335.857,40.378 330.931,38.725L330.93,38.725Z" transform="rotate(0 239.553 159.849)" fill="#FFFFFF"/>
<path d="M308.056,117.812L210.442,85.062C209.963,84.9 209.568,84.555 209.342,84.102C209.117,83.649 209.08,83.125 209.24,82.645L217.352,58.392C217.513,57.913 217.857,57.516 218.31,57.291C218.762,57.065 219.286,57.028 219.765,57.188L317.379,89.939C317.858,90.101 318.254,90.446 318.479,90.899C318.705,91.352 318.741,91.876 318.581,92.356L310.47,116.608C310.309,117.087 309.964,117.484 309.512,117.709C309.059,117.935 308.536,117.972 308.057,117.812L308.056,117.812ZM219.523,57.913C219.235,57.817 218.921,57.839 218.65,57.975C218.378,58.11 218.171,58.348 218.075,58.636L209.963,82.888C209.867,83.176 209.889,83.49 210.025,83.762C210.16,84.034 210.397,84.241 210.685,84.338L308.299,117.088C308.586,117.184 308.9,117.162 309.172,117.027C309.443,116.891 309.65,116.654 309.746,116.366L317.859,92.115C317.955,91.827 317.933,91.513 317.798,91.241C317.663,90.969 317.425,90.762 317.138,90.665L219.523,57.913Z" transform="rotate(0 263.911 87.5)" fill="#3F3D56"/>
<path d="M275.962,213.768L178.348,181.017C177.869,180.856 177.474,180.511 177.248,180.058C177.023,179.605 176.986,179.08 177.146,178.6L192.161,133.71C192.322,133.23 192.667,132.834 193.119,132.608C193.571,132.383 194.095,132.346 194.574,132.506L292.188,165.256C292.668,165.417 293.063,165.762 293.288,166.215C293.514,166.668 293.551,167.192 293.391,167.673L278.375,212.564C278.214,213.043 277.87,213.44 277.417,213.665C276.965,213.891 276.442,213.928 275.962,213.768ZM194.332,133.23C194.044,133.134 193.73,133.156 193.459,133.291C193.187,133.427 192.981,133.665 192.884,133.952L177.869,178.843C177.773,179.131 177.795,179.445 177.931,179.717C178.066,179.989 178.303,180.196 178.591,180.293L276.205,213.043C276.493,213.14 276.807,213.117 277.078,212.982C277.35,212.847 277.556,212.609 277.653,212.321L292.668,167.43C292.764,167.142 292.742,166.827 292.607,166.555C292.472,166.284 292.234,166.077 291.947,165.98L194.332,133.23Z" transform="rotate(0 235.268 173.137)" fill="#3F3D56"/>
<path d="M294.736,155.227L251.353,140.67C250.874,140.508 250.479,140.163 250.253,139.71C250.028,139.257 249.991,138.733 250.151,138.253L258.263,114.001C258.424,113.521 258.769,113.125 259.221,112.899C259.673,112.674 260.197,112.637 260.676,112.797L304.06,127.355C304.539,127.516 304.935,127.861 305.16,128.314C305.385,128.767 305.422,129.291 305.262,129.771L297.151,154.023C296.99,154.503 296.645,154.9 296.192,155.126C295.74,155.352 295.216,155.388 294.736,155.227L294.736,155.227ZM260.434,113.523C260.146,113.427 259.832,113.449 259.561,113.585C259.289,113.72 259.083,113.958 258.986,114.246L250.875,138.497C250.779,138.785 250.801,139.1 250.936,139.372C251.071,139.644 251.309,139.851 251.596,139.947L294.98,154.503C295.268,154.599 295.582,154.577 295.853,154.441C296.125,154.306 296.331,154.068 296.428,153.78L304.539,129.529C304.635,129.241 304.613,128.926 304.478,128.654C304.343,128.382 304.106,128.175 303.818,128.079L260.434,113.523Z" transform="rotate(0 277.707 134.013)" fill="#E6E6E6"/>
<path d="M202.113,254.232L158.73,239.677C158.251,239.515 157.855,239.17 157.63,238.717C157.404,238.264 157.368,237.74 157.528,237.26L172.664,192.007C172.825,191.527 173.169,191.131 173.622,190.905C174.074,190.679 174.597,190.642 175.077,190.803L218.46,205.358C218.939,205.52 219.335,205.865 219.56,206.318C219.786,206.771 219.822,207.295 219.662,207.775L204.526,253.028C204.365,253.508 204.02,253.904 203.568,254.13C203.115,254.356 202.592,254.392 202.113,254.232L202.113,254.232ZM174.833,191.526C174.545,191.43 174.231,191.452 173.96,191.588C173.689,191.723 173.482,191.961 173.385,192.249L158.249,237.502C158.153,237.79 158.175,238.105 158.31,238.376C158.446,238.648 158.683,238.855 158.971,238.952L202.355,253.508C202.643,253.604 202.957,253.582 203.228,253.447C203.499,253.311 203.706,253.073 203.803,252.785L218.938,207.532C219.034,207.244 219.012,206.93 218.877,206.658C218.742,206.386 218.505,206.179 218.217,206.082L174.833,191.526Z" transform="rotate(0 188.595 222.517)" fill="#E6E6E6"/>
<path d="M255.62,272.184L212.235,257.628C211.756,257.467 211.361,257.122 211.135,256.669C210.91,256.216 210.873,255.692 211.033,255.211L226.169,209.958C226.33,209.478 226.675,209.082 227.127,208.857C227.579,208.631 228.103,208.594 228.582,208.754L271.966,223.31C272.445,223.472 272.841,223.817 273.066,224.27C273.292,224.723 273.328,225.247 273.168,225.727L258.033,270.98C257.872,271.46 257.527,271.856 257.075,272.082C256.622,272.308 256.099,272.345 255.62,272.184L255.62,272.184ZM228.34,209.478C228.052,209.382 227.738,209.404 227.467,209.54C227.196,209.675 226.989,209.913 226.892,210.201L211.756,255.454C211.66,255.742 211.682,256.057 211.818,256.329C211.953,256.6 212.19,256.807 212.478,256.904L255.862,271.461C256.15,271.557 256.464,271.535 256.735,271.399C257.006,271.264 257.213,271.026 257.31,270.738L272.445,225.485C272.541,225.197 272.519,224.882 272.384,224.611C272.249,224.339 272.011,224.132 271.724,224.035L228.34,209.478Z" transform="rotate(0 242.101 240.469)" fill="#E6E6E6"/>
<path d="M203.699,161.031C207.988,161.031 211.465,157.549 211.465,153.253C211.465,148.958 207.988,145.476 203.699,145.476C199.41,145.476 195.933,148.958 195.933,153.253C195.933,157.549 199.41,161.031 203.699,161.031Z" transform="rotate(0 203.699 153.253)" fill="#8FE1D7"/>
<path d="M222.348,154.043C222.023,153.934 221.667,153.959 221.36,154.112C221.053,154.265 220.819,154.534 220.71,154.86C220.601,155.186 220.626,155.542 220.779,155.85C220.932,156.158 221.201,156.392 221.526,156.501L279.382,175.912C279.544,175.966 279.714,175.988 279.883,175.976C280.053,175.965 280.218,175.919 280.371,175.844C280.523,175.768 280.659,175.662 280.77,175.534C280.882,175.406 280.967,175.256 281.021,175.095C281.075,174.934 281.097,174.763 281.085,174.593C281.073,174.423 281.028,174.258 280.952,174.105C280.876,173.953 280.771,173.817 280.643,173.705C280.515,173.593 280.366,173.508 280.205,173.454L280.205,173.454L222.348,154.043Z" transform="rotate(0 250.865 164.978)" fill="#E6E6E6"/>
<path d="M219.883,161.418C219.722,161.364 219.552,161.342 219.382,161.354C219.213,161.365 219.047,161.411 218.895,161.486C218.743,161.562 218.607,161.668 218.495,161.796C218.384,161.924 218.299,162.074 218.245,162.235C218.191,162.396 218.169,162.567 218.181,162.737C218.193,162.907 218.238,163.072 218.313,163.225C218.389,163.377 218.494,163.513 218.622,163.625C218.751,163.737 218.9,163.822 219.061,163.876L243.956,172.229C244.118,172.283 244.288,172.305 244.457,172.293C244.627,172.281 244.793,172.236 244.945,172.16C245.097,172.084 245.233,171.979 245.344,171.851C245.456,171.722 245.541,171.573 245.595,171.411C245.649,171.25 245.671,171.08 245.659,170.91C245.647,170.74 245.602,170.574 245.526,170.422C245.45,170.269 245.345,170.133 245.217,170.022C245.089,169.91 244.94,169.825 244.779,169.77L244.779,169.77L219.883,161.418Z" transform="rotate(0 231.92 166.823)" fill="#E6E6E6"/>
<path d="M193.285,165.607C192.352,165.294 191.408,165.59 191.181,166.27C190.954,166.949 191.53,167.754 192.463,168.067L272.287,194.849C273.221,195.162 274.165,194.865 274.391,194.186C274.618,193.506 274.043,192.702 273.109,192.389L193.285,165.607Z" transform="rotate(0 232.786 180.228)" fill="#E6E6E6"/>
<path d="M190.819,172.982C189.885,172.669 188.941,172.966 188.715,173.645C188.488,174.325 189.063,175.129 189.997,175.442L269.821,202.224C270.754,202.537 271.698,202.241 271.925,201.561C272.151,200.882 271.576,200.077 270.643,199.764L190.819,172.982Z" transform="rotate(0 230.32 187.603)" fill="#E6E6E6"/>
<path d="M230.583,83.061C234.872,83.061 238.348,79.579 238.348,75.284C238.348,70.988 234.872,67.506 230.583,67.506C226.294,67.506 222.817,70.988 222.817,75.284C222.817,79.579 226.294,83.061 230.583,83.061Z" transform="rotate(0 230.583 75.284)" fill="#8FE1D7"/>
<path d="M249.232,76.072C249.071,76.018 248.901,75.997 248.732,76.008C248.562,76.02 248.396,76.065 248.244,76.141C248.092,76.217 247.956,76.322 247.845,76.451C247.733,76.579 247.648,76.728 247.594,76.89C247.54,77.051 247.518,77.222 247.53,77.392C247.542,77.561 247.587,77.727 247.663,77.88C247.739,78.032 247.844,78.168 247.972,78.28C248.1,78.391 248.249,78.477 248.41,78.531L248.41,78.531L306.266,97.942C306.428,97.996 306.598,98.018 306.767,98.006C306.937,97.994 307.102,97.949 307.255,97.873C307.407,97.797 307.543,97.692 307.654,97.563C307.766,97.435 307.851,97.286 307.905,97.124C307.959,96.963 307.981,96.792 307.969,96.623C307.957,96.453 307.912,96.287 307.836,96.135C307.76,95.982 307.655,95.846 307.527,95.735C307.399,95.623 307.25,95.538 307.089,95.483L307.089,95.483L249.232,76.072Z" transform="rotate(0 277.749 87.007)" fill="#E6E6E6"/>
<path d="M246.766,83.448C246.605,83.394 246.435,83.372 246.265,83.384C246.096,83.396 245.93,83.441 245.778,83.517C245.626,83.592 245.49,83.698 245.378,83.826C245.267,83.955 245.182,84.104 245.128,84.265C245.074,84.427 245.052,84.597 245.064,84.767C245.075,84.937 245.121,85.103 245.196,85.255C245.272,85.407 245.377,85.543 245.505,85.655C245.634,85.767 245.783,85.852 245.944,85.906L270.839,94.259C271.001,94.313 271.171,94.335 271.34,94.323C271.51,94.311 271.676,94.266 271.828,94.19C271.98,94.114 272.116,94.009 272.227,93.881C272.339,93.752 272.424,93.603 272.478,93.442C272.532,93.28 272.554,93.11 272.542,92.94C272.53,92.77 272.485,92.604 272.409,92.452C272.333,92.299 272.228,92.164 272.1,92.052C271.972,91.94 271.823,91.855 271.662,91.801L246.766,83.448Z" transform="rotate(0 258.803 88.853)" fill="#E6E6E6"/>
<path d="M241.191,137.267L200.493,123.612L215.628,110.211C215.899,109.97 216.229,109.806 216.584,109.733C216.939,109.661 217.306,109.684 217.65,109.799C217.993,109.914 218.3,110.118 218.54,110.39C218.78,110.661 218.944,110.992 219.016,111.347L220.733,119.817L231.727,110.082C232.066,109.781 232.479,109.575 232.923,109.485C233.367,109.394 233.828,109.423 234.257,109.567C234.687,109.711 235.072,109.966 235.372,110.306C235.672,110.647 235.878,111.06 235.968,111.505L241.191,137.267ZM201.988,123.308L240.181,136.123L235.22,111.659C235.157,111.345 235.012,111.054 234.8,110.814C234.589,110.575 234.318,110.395 234.015,110.293C233.712,110.192 233.388,110.172 233.075,110.236C232.762,110.299 232.471,110.444 232.232,110.656L220.249,121.266L218.268,111.499C218.223,111.275 218.12,111.067 217.969,110.896C217.817,110.725 217.624,110.596 217.408,110.524C217.191,110.451 216.96,110.437 216.736,110.483C216.512,110.528 216.305,110.632 216.134,110.783L201.988,123.308Z" transform="rotate(0 220.842 123.35)" fill="#E6E6E6"/>
<path d="M241.231,137.275L197.847,122.72C197.368,122.558 196.972,122.213 196.747,121.76C196.522,121.307 196.485,120.783 196.645,120.303L204.756,96.051C204.917,95.571 205.262,95.175 205.714,94.95C206.167,94.724 206.69,94.687 207.169,94.847L250.554,109.403C251.033,109.565 251.429,109.91 251.654,110.363C251.879,110.816 251.916,111.34 251.756,111.82L243.644,136.072C243.483,136.551 243.139,136.948 242.686,137.173C242.234,137.399 241.711,137.436 241.231,137.275L241.231,137.275ZM206.927,95.571C206.64,95.475 206.326,95.497 206.054,95.632C205.783,95.768 205.576,96.006 205.48,96.294L197.369,120.545C197.273,120.833 197.295,121.148 197.43,121.42C197.565,121.691 197.803,121.898 198.09,121.995L241.474,136.551C241.762,136.647 242.076,136.625 242.347,136.49C242.619,136.354 242.826,136.117 242.922,135.829L251.034,111.577C251.13,111.289 251.108,110.975 250.972,110.703C250.837,110.431 250.6,110.224 250.312,110.127L206.927,95.571Z" transform="rotate(0 224.2 116.061)" fill="#E6E6E6"/>
<path d="M181.198,203.236C181.037,203.181 180.866,203.159 180.697,203.171C180.527,203.183 180.361,203.228 180.209,203.303C180.057,203.379 179.921,203.485 179.809,203.613C179.697,203.742 179.612,203.891 179.558,204.052C179.504,204.214 179.482,204.385 179.494,204.555C179.506,204.725 179.551,204.89 179.627,205.043C179.703,205.195 179.808,205.331 179.937,205.443C180.065,205.555 180.214,205.64 180.376,205.694L205.271,214.047C205.597,214.156 205.952,214.13 206.259,213.977C206.566,213.824 206.799,213.555 206.908,213.229C207.017,212.903 206.993,212.547 206.84,212.24C206.687,211.932 206.419,211.698 206.094,211.588L181.198,203.236Z" transform="rotate(0 193.233 208.641)" fill="#E6E6E6"/>
<path d="M178.776,210.477C178.615,210.423 178.444,210.401 178.275,210.413C178.105,210.424 177.939,210.469 177.787,210.545C177.634,210.621 177.499,210.726 177.387,210.855C177.275,210.983 177.19,211.133 177.136,211.294C177.082,211.456 177.06,211.626 177.072,211.796C177.084,211.966 177.129,212.132 177.205,212.285C177.281,212.437 177.386,212.573 177.515,212.685C177.643,212.797 177.792,212.882 177.954,212.936L202.85,221.29C203.175,221.398 203.53,221.373 203.836,221.22C204.143,221.066 204.376,220.797 204.485,220.472C204.593,220.146 204.569,219.791 204.417,219.484C204.264,219.176 203.997,218.942 203.672,218.832L178.776,210.477Z" transform="rotate(0 190.81 215.883)" fill="#E6E6E6"/>
<path d="M249.497,259.751C249.822,259.86 250.177,259.835 250.484,259.681C250.791,259.528 251.025,259.259 251.134,258.933C251.242,258.608 251.218,258.252 251.065,257.944C250.912,257.637 250.644,257.402 250.319,257.293L225.423,248.94C225.098,248.831 224.743,248.856 224.436,249.01C224.129,249.163 223.895,249.432 223.786,249.758C223.677,250.084 223.702,250.439 223.855,250.747C224.007,251.054 224.276,251.289 224.601,251.398L249.497,259.751Z" transform="rotate(0 237.46 254.346)" fill="#E6E6E6"/>
<path d="M251.918,252.508C252.08,252.563 252.25,252.585 252.42,252.573C252.589,252.561 252.755,252.516 252.908,252.44C253.06,252.365 253.196,252.259 253.307,252.131C253.419,252.002 253.504,251.853 253.558,251.692C253.613,251.53 253.634,251.359 253.622,251.189C253.61,251.019 253.565,250.853 253.489,250.701C253.413,250.549 253.308,250.413 253.18,250.301C253.051,250.189 252.902,250.104 252.741,250.05L227.845,241.697C227.684,241.643 227.514,241.621 227.344,241.632C227.174,241.644 227.008,241.689 226.856,241.765C226.704,241.841 226.568,241.946 226.456,242.075C226.344,242.203 226.259,242.352 226.205,242.514C226.151,242.676 226.129,242.846 226.141,243.016C226.153,243.186 226.198,243.352 226.274,243.505C226.35,243.657 226.455,243.793 226.584,243.905C226.712,244.016 226.861,244.102 227.023,244.156L251.918,252.508Z" transform="rotate(0 239.882 247.103)" fill="#E6E6E6"/>
<path d="M290.802,136.508C290.963,136.562 291.133,136.584 291.303,136.572C291.473,136.561 291.638,136.516 291.791,136.44C291.943,136.364 292.079,136.259 292.191,136.13C292.302,136.002 292.388,135.852 292.442,135.691C292.496,135.529 292.517,135.359 292.506,135.189C292.494,135.019 292.448,134.853 292.373,134.7C292.297,134.548 292.191,134.412 292.063,134.3C291.934,134.189 291.785,134.103 291.624,134.049L266.728,125.697C266.567,125.642 266.397,125.62 266.227,125.632C266.057,125.644 265.892,125.689 265.739,125.764C265.587,125.84 265.451,125.946 265.339,126.074C265.228,126.203 265.142,126.352 265.088,126.513C265.034,126.675 265.013,126.846 265.024,127.016C265.036,127.186 265.081,127.351 265.157,127.504C265.233,127.656 265.339,127.792 265.467,127.904C265.595,128.016 265.745,128.101 265.906,128.155L290.802,136.508Z" transform="rotate(0 278.765 131.102)" fill="#E6E6E6"/>
<path d="M288.733,142.308C288.894,142.363 289.065,142.385 289.234,142.373C289.404,142.361 289.57,142.316 289.722,142.24C289.874,142.165 290.01,142.059 290.122,141.931C290.234,141.802 290.319,141.653 290.373,141.491C290.427,141.33 290.449,141.159 290.437,140.989C290.425,140.819 290.38,140.653 290.304,140.501C290.228,140.348 290.123,140.213 289.994,140.101C289.866,139.989 289.717,139.904 289.555,139.85L264.66,131.497C264.498,131.443 264.328,131.421 264.158,131.432C263.989,131.444 263.823,131.489 263.671,131.565C263.518,131.641 263.382,131.746 263.271,131.875C263.159,132.003 263.074,132.152 263.02,132.314C262.966,132.475 262.944,132.646 262.956,132.816C262.968,132.986 263.013,133.152 263.089,133.304C263.165,133.457 263.27,133.593 263.398,133.705C263.527,133.816 263.676,133.902 263.837,133.955L288.733,142.308Z" transform="rotate(0 276.696 136.903)" fill="#E6E6E6"/>
<path d="M80.243,128.027C87.515,128.027 93.409,122.123 93.409,114.84C93.409,107.557 87.515,101.653 80.243,101.653C72.972,101.653 67.077,107.557 67.077,114.84C67.077,122.123 72.972,128.027 80.243,128.027Z" transform="rotate(0 80.243 114.84)" fill="#9F616A"/>
<path d="M72.632,116.471C73.676,116.409 74.695,116.761 75.732,116.9C79.44,117.393 83.297,114.698 84.116,111.043C84.182,110.556 84.327,110.083 84.545,109.643C85.116,108.71 86.416,108.532 87.487,108.747C88.559,108.961 89.574,109.463 90.666,109.521C92.35,109.61 93.968,108.571 94.866,107.14C95.714,105.664 96.075,103.957 95.897,102.264L95.089,103.113C94.761,102.417 94.634,101.644 94.723,100.88C94.295,100.765 93.845,100.763 93.416,100.873C92.987,100.983 92.593,101.202 92.272,101.508C91.56,101.584 92.098,100.185 91.569,99.701C91.312,99.543 91.005,99.486 90.708,99.54C89.193,99.555 87.967,98.394 86.773,97.46C84.705,95.845 82.286,94.74 79.712,94.234C78.001,93.9 76.182,93.846 74.56,94.483C73.25,95.071 72.068,95.911 71.08,96.955C68.54,99.399 66.29,102.275 65.234,105.642C64.375,108.4 64.351,111.351 65.164,114.123C65.59,115.562 66.873,120.492 68.752,120.606C71.111,120.752 69.694,116.647 72.632,116.471Z" transform="rotate(0 80.256 107.3)" fill="#2F2E41"/>
<path d="M54.4,220.42C55.13,219.918 55.742,219.263 56.192,218.499C56.641,217.735 56.919,216.882 57.003,215.999C57.088,215.117 56.979,214.226 56.683,213.391C56.387,212.555 55.912,211.794 55.291,211.162L57.64,158.644L45.681,159.989L46.375,211.36C45.384,212.476 44.836,213.917 44.835,215.41C44.834,216.903 45.38,218.344 46.369,219.461C47.358,220.578 48.722,221.293 50.202,221.47C51.683,221.647 53.176,221.274 54.4,220.421L54.4,220.42Z" transform="rotate(0 51.238 190.079)" fill="#A0616A"/>
<path d="M76.218,309.321L83.025,310.519L89.752,284.792L80.834,283.023L76.218,309.321Z" transform="rotate(0 82.985 296.771)" fill="#A0616A"/>
<path d="M94.994,319.171L73.599,315.386L75.059,307.107L88.188,309.43C90.38,309.818 92.329,311.062 93.605,312.889C94.882,314.716 95.381,316.976 94.994,319.171L94.994,319.171Z" transform="rotate(0 84.36 313.139)" fill="#2F2E41"/>
<path d="M57.535,312.734L64.446,312.734L67.733,286.035L57.534,286.035L57.535,312.734Z" transform="rotate(0 62.633 299.385)" fill="#A0616A"/>
<path d="M77.768,319.161L56.047,319.161L56.047,310.756L69.376,310.756C71.602,310.756 73.736,311.641 75.31,313.217C76.884,314.794 77.768,316.932 77.768,319.161Z" transform="rotate(0 66.908 314.958)" fill="#2F2E41"/>
<path d="M86.37,303.164C86.262,303.164 86.154,303.158 86.047,303.145L77.913,302.475C77.188,302.389 76.527,302.019 76.075,301.446C75.622,300.872 75.416,300.142 75.501,299.417C75.507,299.371 75.513,299.325 75.521,299.279L83.598,259.373L78.523,232.568C78.482,232.35 78.363,232.154 78.189,232.017C78.015,231.88 77.798,231.81 77.576,231.821C77.355,231.832 77.145,231.923 76.986,232.077C76.826,232.231 76.728,232.437 76.708,232.658L69.234,300.766C69.165,301.483 68.819,302.146 68.271,302.613C67.724,303.08 67.016,303.316 66.297,303.271L58.634,302.985C57.962,302.938 57.331,302.645 56.86,302.164C56.389,301.682 56.11,301.044 56.077,300.371L56.689,218.07L96.421,213.096L99.197,256.028L99.186,256.074L89.043,301.059C88.897,301.659 88.555,302.192 88.07,302.574C87.585,302.956 86.987,303.164 86.37,303.164L86.37,303.164Z" transform="rotate(0 77.637 258.186)" fill="#2F2E41"/>
<path d="M82.834,224.333C80.668,224.346 78.544,223.737 76.712,222.579C70.005,218.381 62.388,220.049 58.444,221.419C58.052,221.556 57.635,221.603 57.223,221.556C56.811,221.509 56.415,221.37 56.064,221.148C55.718,220.93 55.425,220.636 55.208,220.289C54.991,219.942 54.855,219.55 54.81,219.143L47.64,154.988C46.438,144.239 52.903,134.133 63.011,130.959C63.391,130.84 63.777,130.727 64.17,130.62C67.315,129.766 70.61,129.612 73.821,130.171C77.032,130.729 80.083,131.985 82.757,133.851C85.481,135.737 87.76,138.199 89.432,141.062C91.104,143.925 92.13,147.12 92.436,150.423L98.475,215.006C98.516,215.424 98.459,215.846 98.31,216.239C98.16,216.632 97.921,216.984 97.612,217.268C95.495,219.23 89.352,224.332 82.834,224.333Z" transform="rotate(0 72.992 177.087)" fill="#8FE1D7"/>
<path d="M60.995,168.745L44.814,166.963C44.354,166.912 43.91,166.763 43.512,166.525C43.115,166.287 42.773,165.966 42.511,165.583C42.248,165.201 42.071,164.767 41.991,164.31C41.912,163.853 41.931,163.384 42.049,162.935L46.167,147.213C46.292,146.042 46.645,144.907 47.208,143.872C47.771,142.838 48.531,141.924 49.446,141.185C50.362,140.445 51.414,139.893 52.542,139.56C53.67,139.228 54.853,139.121 56.022,139.247C57.192,139.372 58.325,139.727 59.357,140.292C60.39,140.856 61.301,141.619 62.039,142.536C62.777,143.453 63.327,144.507 63.658,145.638C63.989,146.768 64.094,147.952 63.968,149.124C63.964,149.157 63.961,149.191 63.957,149.225L64.568,165.415C64.585,165.878 64.503,166.34 64.326,166.769C64.149,167.198 63.882,167.583 63.543,167.899C63.204,168.215 62.8,168.454 62.361,168.6C61.921,168.746 61.455,168.795 60.995,168.745L60.995,168.745Z" transform="rotate(0 53.257 153.98)" fill="#8FE1D7"/>
<path d="M98.408,218.171C99.073,217.585 99.601,216.86 99.956,216.048C100.31,215.235 100.483,214.355 100.461,213.468C100.439,212.582 100.224,211.711 99.829,210.917C99.435,210.123 98.872,209.425 98.179,208.873L94.192,156.454L82.473,159.097L89.352,210.145C88.503,211.371 88.133,212.868 88.311,214.35C88.49,215.832 89.205,217.197 90.321,218.186C91.437,219.175 92.877,219.72 94.368,219.717C95.858,219.715 97.296,219.164 98.408,218.171L98.408,218.171Z" transform="rotate(0 91.468 188.086)" fill="#A0616A"/>
<path d="M77.98,165.449C77.64,165.133 77.373,164.748 77.196,164.319C77.019,163.89 76.937,163.427 76.955,162.964L77.566,146.774C77.314,144.418 78.003,142.059 79.483,140.211C80.962,138.363 83.112,137.176 85.462,136.91C87.812,136.645 90.172,137.321 92.026,138.792C93.879,140.263 95.076,142.41 95.355,144.762L99.474,160.484C99.591,160.933 99.611,161.402 99.531,161.858C99.451,162.315 99.274,162.75 99.012,163.132C98.75,163.514 98.408,163.835 98.011,164.073C97.613,164.312 97.169,164.461 96.709,164.512L80.528,166.293C80.067,166.344 79.601,166.295 79.162,166.149C78.722,166.003 78.319,165.764 77.98,165.448L77.98,165.449Z" transform="rotate(0 88.266 151.583)" fill="#8FE1D7"/>
<path d="M305.362,319.172L0,319.172L0,320L305.362,320L305.362,319.172Z" transform="rotate(0 152.681 319.586)" fill="#CACACA"/>
</svg>
