<svg width="360" height="360" viewBox="0 0 360 360" fill="none" xmlns="http://www.w3.org/2000/svg" xmlns:xlink="http://www.w3.org/1999/xlink">
<path d="M34.62,303.268L31.449,290.801C25.828,288.426 20.076,286.369 14.222,284.639L13.822,290.433L12.199,284.05C4.939,281.981 0,281.07 0,281.07C0,281.07 6.67,306.363 20.664,325.7L36.968,328.556L24.302,330.377C26.062,332.489 27.954,334.488 29.966,336.363C50.321,355.2 72.993,363.843 80.605,355.667C88.217,347.49 77.886,325.592 57.531,306.756C51.221,300.916 43.294,296.23 35.359,292.541L34.62,303.268Z" transform="rotate(0 41.554 319.911)" fill="#F2F2F2"/>
<path d="M64.772,289.727L68.522,277.421C64.941,272.49 61.085,267.765 56.97,263.267L53.624,268.021L55.544,261.72C50.401,256.209 46.645,252.885 46.645,252.885C46.645,252.885 39.243,277.975 41.195,301.74L53.672,312.587L41.883,307.617C42.296,310.333 42.879,313.02 43.63,315.662C51.288,342.278 66.216,361.361 76.971,358.285C87.725,355.208 90.236,331.138 82.577,304.522C80.203,296.271 75.846,288.174 70.966,280.927L64.772,289.727Z" transform="rotate(0 63.94 305.747)" fill="#F2F2F2"/>
<path d="M251.206,85.284L249.228,85.284L249.228,31.266C249.228,27.16 248.417,23.094 246.841,19.301C245.265,15.507 242.955,12.061 240.044,9.157C237.132,6.254 233.675,3.951 229.87,2.38C226.065,0.809 221.987,0 217.869,0L103.077,0C94.76,0 86.784,3.294 80.903,9.157C75.022,15.021 71.718,22.974 71.718,31.266L71.718,327.62C71.718,331.726 72.529,335.792 74.105,339.586C75.681,343.378 77.991,346.826 80.903,349.728C83.815,352.632 87.272,354.936 91.077,356.506C94.881,358.078 98.959,358.886 103.077,358.886L217.869,358.886C226.186,358.886 234.162,355.592 240.043,349.728C245.924,343.866 249.228,335.912 249.228,327.62L249.228,123.736L251.206,123.736L251.206,85.284Z" transform="rotate(0 161.462 179.443)" fill="#E6E6E6"/>
<path d="M219.134,8.131L204.151,8.131C204.841,9.816 205.104,11.643 204.917,13.453C204.731,15.263 204.101,16.999 203.084,18.509C202.066,20.018 200.691,21.256 199.081,22.111C197.47,22.966 195.674,23.414 193.849,23.413L128.086,23.413C126.262,23.413 124.465,22.966 122.855,22.111C121.245,21.255 119.87,20.018 118.852,18.508C117.835,16.998 117.205,15.262 117.019,13.453C116.833,11.643 117.096,9.816 117.785,8.131L103.79,8.131C97.579,8.131 91.622,10.591 87.23,14.97C82.838,19.349 80.371,25.288 80.371,31.48L80.371,327.405C80.371,333.597 82.838,339.535 87.23,343.915C91.622,348.293 97.579,350.753 103.79,350.753L219.134,350.753C225.345,350.753 231.302,348.293 235.694,343.915C240.086,339.535 242.553,333.597 242.553,327.405L242.553,327.405L242.553,31.48C242.553,25.287 240.086,19.348 235.694,14.97C231.302,10.591 225.345,8.131 219.134,8.131L219.134,8.131Z" transform="rotate(0 161.462 179.442)" fill="#FFFFFF"/>
<path d="M146.764,126.013C146.764,123.944 147.31,121.912 148.347,120.121C149.385,118.33 150.878,116.843 152.675,115.809C150.879,114.775 148.841,114.23 146.766,114.23C144.692,114.23 142.654,114.774 140.857,115.808C139.06,116.842 137.568,118.329 136.531,120.12C135.494,121.912 134.948,123.944 134.948,126.012C134.948,128.08 135.494,130.112 136.531,131.903C137.568,133.694 139.06,135.182 140.857,136.216C142.654,137.25 144.692,137.794 146.766,137.794C148.841,137.794 150.879,137.249 152.675,136.214C150.878,135.181 149.385,133.695 148.348,131.904C147.31,130.113 146.764,128.081 146.764,126.013L146.764,126.013Z" transform="rotate(0 143.811 126.012)" fill="#CCCCCC"/>
<path d="M161.62,126.013C161.619,123.944 162.166,121.912 163.203,120.121C164.241,118.33 165.733,116.842 167.531,115.809C165.734,114.775 163.697,114.23 161.622,114.23C159.548,114.23 157.51,114.774 155.713,115.808C153.916,116.842 152.424,118.329 151.387,120.12C150.35,121.912 149.804,123.944 149.804,126.012C149.804,128.08 150.35,130.112 151.387,131.903C152.424,133.694 153.916,135.182 155.713,136.216C157.51,137.25 159.548,137.794 161.622,137.794C163.697,137.794 165.734,137.249 167.531,136.214C165.734,135.181 164.241,133.695 163.203,131.904C162.166,130.113 161.62,128.081 161.62,126.013L161.62,126.013Z" transform="rotate(0 158.667 126.012)" fill="#CCCCCC"/>
<path d="M176.138,137.794C182.665,137.794 187.956,132.519 187.956,126.012C187.956,119.505 182.665,114.23 176.138,114.23C169.612,114.23 164.321,119.505 164.321,126.012C164.321,132.519 169.612,137.794 176.138,137.794Z" transform="rotate(0 176.138 126.012)" fill="#8FE1D7"/>
<path d="M195.888,162.812L127.015,162.812C126.359,162.811 125.73,162.551 125.267,162.089C124.803,161.626 124.542,161 124.541,160.346L124.541,91.678C124.542,91.025 124.803,90.398 125.267,89.936C125.73,89.473 126.359,89.213 127.015,89.212L195.888,89.212C196.543,89.213 197.172,89.473 197.636,89.936C198.099,90.398 198.36,91.025 198.361,91.678L198.361,160.346C198.36,161 198.099,161.626 197.636,162.089C197.172,162.551 196.543,162.811 195.888,162.812L195.888,162.812ZM127.015,90.199C126.621,90.2 126.244,90.356 125.966,90.633C125.688,90.91 125.531,91.287 125.531,91.679L125.531,160.346C125.531,160.739 125.688,161.115 125.966,161.392C126.244,161.669 126.621,161.825 127.015,161.826L195.888,161.826C196.281,161.825 196.658,161.669 196.936,161.392C197.215,161.115 197.371,160.739 197.371,160.346L197.371,91.679C197.371,91.287 197.215,90.91 196.936,90.633C196.658,90.356 196.281,90.2 195.888,90.199L127.015,90.199Z" transform="rotate(0 161.451 126.012)" fill="#CCCCCC"/>
<path d="M211.266,215.449L105.635,215.449L105.635,216.435L211.266,216.435L211.266,215.449Z" transform="rotate(0 158.451 215.942)" fill="#CCCCCC"/>
<path d="M108.971,209.29C110.814,209.29 112.307,207.801 112.307,205.964C112.307,204.127 110.814,202.638 108.971,202.638C107.129,202.638 105.635,204.127 105.635,205.964C105.635,207.801 107.129,209.29 108.971,209.29Z" transform="rotate(0 108.971 205.964)" fill="#8FE1D7"/>
<path d="M211.266,248.706L105.635,248.706L105.635,249.692L211.266,249.692L211.266,248.706Z" transform="rotate(0 158.451 249.199)" fill="#CCCCCC"/>
<path d="M108.971,242.548C110.814,242.548 112.307,241.059 112.307,239.222C112.307,237.385 110.814,235.896 108.971,235.896C107.129,235.896 105.635,237.385 105.635,239.222C105.635,241.059 107.129,242.548 108.971,242.548Z" transform="rotate(0 108.971 239.222)" fill="#8FE1D7"/>
<path d="M209.333,286.578L175.951,286.578C175.374,286.577 174.821,286.349 174.414,285.942C174.006,285.536 173.777,284.984 173.776,284.409L173.776,272.744C173.777,272.169 174.006,271.618 174.414,271.211C174.821,270.805 175.374,270.576 175.951,270.576L209.333,270.576C209.91,270.576 210.462,270.805 210.87,271.211C211.278,271.618 211.507,272.169 211.508,272.744L211.508,284.409C211.507,284.984 211.278,285.536 210.87,285.942C210.462,286.349 209.91,286.577 209.333,286.578L209.333,286.578Z" transform="rotate(0 192.642 278.577)" fill="#8FE1D7"/>
<path d="M119.853,209.29C121.695,209.29 123.189,207.801 123.189,205.964C123.189,204.127 121.695,202.638 119.853,202.638C118.01,202.638 116.517,204.127 116.517,205.964C116.517,207.801 118.01,209.29 119.853,209.29Z" transform="rotate(0 119.853 205.964)" fill="#8FE1D7"/>
<path d="M130.734,209.29C132.577,209.29 134.07,207.801 134.07,205.964C134.07,204.127 132.577,202.638 130.734,202.638C128.892,202.638 127.398,204.127 127.398,205.964C127.398,207.801 128.892,209.29 130.734,209.29Z" transform="rotate(0 130.734 205.964)" fill="#8FE1D7"/>
<path d="M119.853,242.548C121.695,242.548 123.189,241.059 123.189,239.222C123.189,237.385 121.695,235.896 119.853,235.896C118.01,235.896 116.517,237.385 116.517,239.222C116.517,241.059 118.01,242.548 119.853,242.548Z" transform="rotate(0 119.853 239.222)" fill="#8FE1D7"/>
<path d="M130.734,242.548C132.577,242.548 134.07,241.059 134.07,239.222C134.07,237.385 132.577,235.896 130.734,235.896C128.892,235.896 127.398,237.385 127.398,239.222C127.398,241.059 128.892,242.548 130.734,242.548Z" transform="rotate(0 130.734 239.222)" fill="#8FE1D7"/>
<path d="M358.656,360L11.638,360C10.896,360 10.294,359.737 10.294,359.413C10.294,359.089 10.896,358.826 11.638,358.826L358.656,358.826C359.398,358.826 360,359.089 360,359.413C360,359.737 359.398,360 358.656,360Z" transform="rotate(0 185.147 359.413)" fill="#3F3D56"/>
<path d="M272.92,235.861C273.157,235.969 273.385,236.096 273.601,236.24L295.279,227.015L296.053,221.322L304.715,221.269L304.203,234.327L275.591,241.871C275.531,242.07 275.458,242.264 275.375,242.454C274.961,243.334 274.296,244.072 273.462,244.577C272.629,245.081 271.665,245.329 270.691,245.288C269.717,245.248 268.776,244.922 267.988,244.351C267.199,243.779 266.597,242.989 266.258,242.077C265.919,241.166 265.857,240.175 266.081,239.229C266.304,238.283 266.803,237.424 267.515,236.76C268.227,236.096 269.119,235.656 270.081,235.496C271.043,235.336 272.03,235.463 272.92,235.861L272.92,235.861Z" transform="rotate(0 285.332 233.281)" fill="#FFB8B8"/>
<path d="M307.865,354.19L301.94,354.19L299.121,331.403L307.866,331.404L307.865,354.19Z" transform="rotate(0 303.494 342.797)" fill="#FFB8B8"/>
<path d="M297.707,352.502L309.135,352.502L309.135,359.676L290.512,359.676C290.512,357.773 291.27,355.949 292.619,354.603C293.969,353.258 295.799,352.502 297.707,352.502Z" transform="rotate(0 299.823 356.089)" fill="#2F2E41"/>
<path d="M330.91,352.521L325.013,353.1L319.967,330.699L328.67,329.844L330.91,352.521Z" transform="rotate(0 325.438 341.472)" fill="#FFB8B8"/>
<path d="M320.978,351.61L332.405,351.61L332.405,358.784L313.783,358.784C313.783,357.842 313.969,356.909 314.33,356.038C314.692,355.168 315.222,354.377 315.89,353.711C316.558,353.045 317.351,352.517 318.224,352.156C319.097,351.795 320.033,351.61 320.978,351.61Z" transform="rotate(-11.217 323.094 355.197)" fill="#2F2E41"/>
<path d="M309.515,197.153C316.071,197.153 321.385,191.854 321.385,185.318C321.385,178.781 316.071,173.482 309.515,173.482C302.958,173.482 297.644,178.781 297.644,185.318C297.644,191.854 302.958,197.153 309.515,197.153Z" transform="rotate(0 309.515 185.318)" fill="#FFB8B8"/>
<path d="M300.616,349.582C300.106,349.584 299.613,349.406 299.223,349.08C298.832,348.754 298.57,348.301 298.482,347.801C295.415,330.826 285.39,275.324 285.15,273.786C285.145,273.751 285.142,273.715 285.142,273.679L285.142,269.541C285.142,269.39 285.189,269.243 285.277,269.121L286.602,267.271C286.665,267.182 286.747,267.109 286.843,267.057C286.939,267.005 287.045,266.975 287.154,266.97C294.705,266.617 319.433,265.583 320.627,267.071C321.827,268.567 321.403,273.098 321.306,273.991L321.311,274.084L332.42,344.918C332.507,345.483 332.367,346.059 332.031,346.522C331.695,346.985 331.19,347.298 330.625,347.392L323.686,348.532C323.169,348.615 322.64,348.51 322.194,348.236C321.748,347.963 321.416,347.539 321.257,347.042C319.111,340.205 311.915,317.205 309.421,308.305C309.405,308.249 309.37,308.2 309.321,308.168C309.271,308.136 309.212,308.123 309.154,308.131C309.096,308.139 309.043,308.168 309.005,308.212C308.967,308.257 308.946,308.313 308.947,308.372C309.071,316.856 309.373,338.501 309.476,345.976L309.488,346.781C309.492,347.327 309.292,347.854 308.925,348.258C308.559,348.663 308.054,348.916 307.51,348.967L300.819,349.573C300.751,349.58 300.683,349.582 300.616,349.582Z" transform="rotate(0 308.794 307.937)" fill="#2F2E41"/>
<path d="M301.981,201.807C299.909,203.035 298.669,205.291 297.958,207.587C296.641,211.838 295.848,216.233 295.597,220.675L294.846,233.974L285.539,269.233C293.605,276.038 298.258,274.491 309.116,268.926C319.974,263.36 321.215,270.781 321.215,270.781L323.386,240.78L326.488,207.997C325.792,207.161 325.004,206.406 324.138,205.745C321.271,203.522 317.935,201.977 314.382,201.226C310.828,200.475 307.15,200.538 303.625,201.41L301.981,201.807Z" transform="rotate(0 306.014 237.225)" fill="#8FE1D7"/>
<path d="M298.958,242.982C299.208,243.076 299.451,243.189 299.683,243.321L321.118,232.625L321.473,226.83L330.315,226.222L330.789,239.431L302.145,248.876C301.911,249.876 301.377,250.782 300.614,251.472C299.852,252.162 298.896,252.605 297.875,252.741C296.854,252.877 295.816,252.699 294.898,252.233C293.981,251.766 293.228,251.031 292.739,250.127C292.25,249.223 292.049,248.192 292.162,247.172C292.275,246.151 292.698,245.188 293.373,244.413C294.048,243.637 294.944,243.085 295.942,242.829C296.939,242.573 297.991,242.627 298.958,242.982Z" transform="rotate(0 311.46 239.504)" fill="#FFB8B8"/>
<path d="M326.333,208.147C331.606,210.003 332.535,230.108 332.535,230.108C326.331,226.706 318.886,232.273 318.886,232.273C318.886,232.273 317.335,227.015 315.473,220.211C314.911,218.297 314.844,216.272 315.278,214.326C315.712,212.379 316.633,210.573 317.955,209.076C317.955,209.076 321.059,206.29 326.333,208.147Z" transform="rotate(0 323.766 219.891)" fill="#8FE1D7"/>
<path d="M320.159,188.448C318.68,187.268 316.662,189.412 316.662,189.412L315.478,178.795C315.478,178.795 308.083,179.678 303.35,178.5C298.617,177.322 297.878,182.777 297.878,182.777C297.634,180.573 297.584,178.353 297.73,176.141C298.025,173.486 301.871,170.832 308.675,169.062C315.478,167.293 319.028,174.961 319.028,174.961C323.761,177.32 321.638,189.627 320.159,188.448Z" transform="rotate(0 309.793 179.105)" fill="#2F2E41"/>
</svg>
