<svg width="44" height="32" viewBox="0 0 44 32" fill="none" xmlns="http://www.w3.org/2000/svg" xmlns:xlink="http://www.w3.org/1999/xlink">
<path d="M43.65,9.048C31.47,-2.218 12.525,-2.214 0.35,9.048C-0.108,9.471 -0.117,10.189 0.326,10.628L2.68,12.963C3.102,13.383 3.781,13.392 4.22,12.989C14.252,3.799 29.747,3.797 39.781,12.989C40.219,13.392 40.899,13.382 41.321,12.963L43.675,10.628C44.117,10.189 44.108,9.471 43.65,9.048ZM22,22.6C19.57,22.6 17.6,24.57 17.6,27C17.6,29.43 19.57,31.4 22,31.4C24.43,31.4 26.4,29.43 26.4,27C26.4,24.57 24.43,22.6 22,22.6ZM35.933,16.853C28.009,9.845 15.982,9.853 8.066,16.853C7.592,17.273 7.577,18.001 8.027,18.445L10.395,20.782C10.807,21.189 11.472,21.216 11.911,20.837C17.682,15.847 26.331,15.858 32.088,20.837C32.528,21.216 33.192,21.189 33.604,20.782L35.972,18.445C36.423,18.001 36.407,17.272 35.933,16.853L35.933,16.853Z" transform="rotate(0 22 16)" fill="#000000"/>
</svg>
