<svg width="42" height="36" viewBox="0 0 42 36" fill="none" xmlns="http://www.w3.org/2000/svg" xmlns:xlink="http://www.w3.org/1999/xlink">
<path d="M12.85,20.2L9.55,20.2C8.942,20.2 8.45,20.692 8.45,21.3L8.45,34.5C8.45,35.108 8.942,35.6 9.55,35.6L12.85,35.6C13.458,35.6 13.95,35.108 13.95,34.5L13.95,21.3C13.95,20.692 13.458,20.2 12.85,20.2ZM4.05,26.8L0.75,26.8C0.142,26.8 -0.35,27.292 -0.35,27.9L-0.35,34.5C-0.35,35.108 0.142,35.6 0.75,35.6L4.05,35.6C4.658,35.6 5.15,35.108 5.15,34.5L5.15,27.9C5.15,27.292 4.658,26.8 4.05,26.8ZM21.65,13.6L18.35,13.6C17.742,13.6 17.25,14.092 17.25,14.7L17.25,34.5C17.25,35.108 17.742,35.6 18.35,35.6L21.65,35.6C22.258,35.6 22.75,35.108 22.75,34.5L22.75,14.7C22.75,14.092 22.258,13.6 21.65,13.6ZM30.45,7L27.15,7C26.542,7 26.05,7.492 26.05,8.1L26.05,34.5C26.05,35.108 26.542,35.6 27.15,35.6L30.45,35.6C31.058,35.6 31.55,35.108 31.55,34.5L31.55,8.1C31.55,7.492 31.058,7 30.45,7ZM39.25,0.4L35.95,0.4C35.342,0.4 34.85,0.892 34.85,1.5L34.85,34.5C34.85,35.108 35.342,35.6 35.95,35.6L39.25,35.6C39.858,35.6 40.35,35.108 40.35,34.5L40.35,1.5C40.35,0.892 39.858,0.4 39.25,0.4Z" transform="rotate(0 20 18)" fill="#000000"/>
</svg>
