<svg width="44" height="22" viewBox="0 0 44 22" fill="none" xmlns="http://www.w3.org/2000/svg" xmlns:xlink="http://www.w3.org/1999/xlink">
<path d="M36.76,3.4L36.76,7.8L38.96,7.8L38.96,12.2L36.76,12.2L36.76,16.6L3.76,16.6L3.76,3.4L36.76,3.4ZM37.86,-1L2.66,-1C0.837,-1 -0.64,0.477 -0.64,2.3L-0.64,17.7C-0.64,19.523 0.837,21 2.66,21L37.86,21C39.683,21 41.16,19.523 41.16,17.7L41.16,16.6L41.71,16.6C42.621,16.6 43.36,15.861 43.36,14.95L43.36,5.05C43.36,4.139 42.621,3.4 41.71,3.4L41.16,3.4L41.16,2.3C41.16,0.477 39.683,-1 37.86,-1ZM27.96,5.6L5.96,5.6L5.96,14.4L27.96,14.4L27.96,5.6Z" transform="rotate(0 21.36 10)" fill="#000000"/>
</svg>
