<svg width="44" height="24" viewBox="0 0 44 24" fill="none" xmlns="http://www.w3.org/2000/svg" xmlns:xlink="http://www.w3.org/1999/xlink">
<path d="M36.76,5.4L36.76,9.8L38.96,9.8L38.96,14.2L36.76,14.2L36.76,18.6L3.76,18.6L3.76,5.4L36.76,5.4ZM37.86,1L2.66,1C0.837,1 -0.64,2.477 -0.64,4.3L-0.64,19.7C-0.64,21.523 0.837,23 2.66,23L37.86,23C39.683,23 41.16,21.523 41.16,19.7L41.16,18.6L41.71,18.6C42.621,18.6 43.36,17.861 43.36,16.95L43.36,7.05C43.36,6.139 42.621,5.4 41.71,5.4L41.16,5.4L41.16,4.3C41.16,2.477 39.683,1 37.86,1ZM27.96,7.6L5.96,7.6L5.96,16.4L27.96,16.4L27.96,7.6Z" transform="rotate(0 21.36 12)" fill="#000000"/>
</svg>
