<svg width="42" height="36" viewBox="0 0 42 36" fill="none" xmlns="http://www.w3.org/2000/svg" xmlns:xlink="http://www.w3.org/1999/xlink">
<path d="M12.685,19.365L9.385,19.365C8.777,19.365 8.285,19.857 8.285,20.465L8.285,33.665C8.285,34.273 8.777,34.765 9.385,34.765L12.685,34.765C13.293,34.765 13.785,34.273 13.785,33.665L13.785,20.465C13.785,19.857 13.293,19.365 12.685,19.365ZM3.885,25.965L0.585,25.965C-0.023,25.965 -0.515,26.457 -0.515,27.065L-0.515,33.665C-0.515,34.273 -0.023,34.765 0.585,34.765L3.885,34.765C4.493,34.765 4.985,34.273 4.985,33.665L4.985,27.065C4.985,26.457 4.493,25.965 3.885,25.965ZM21.485,12.765L18.185,12.765C17.577,12.765 17.085,13.257 17.085,13.865L17.085,33.665C17.085,34.273 17.577,34.765 18.185,34.765L21.485,34.765C22.093,34.765 22.585,34.273 22.585,33.665L22.585,13.865C22.585,13.257 22.093,12.765 21.485,12.765ZM30.285,6.165L26.985,6.165C26.377,6.165 25.885,6.657 25.885,7.265L25.885,33.665C25.885,34.273 26.377,34.765 26.985,34.765L30.285,34.765C30.893,34.765 31.385,34.273 31.385,33.665L31.385,7.265C31.385,6.657 30.893,6.165 30.285,6.165ZM39.085,-0.435L35.785,-0.435C35.177,-0.435 34.685,0.057 34.685,0.665L34.685,33.665C34.685,34.273 35.177,34.765 35.785,34.765L39.085,34.765C39.693,34.765 40.185,34.273 40.185,33.665L40.185,0.665C40.185,0.057 39.693,-0.435 39.085,-0.435Z" transform="rotate(0 19.835 17.165)" fill="#000000"/>
</svg>
