<svg width="44" height="24" viewBox="0 0 44 24" fill="none" xmlns="http://www.w3.org/2000/svg" xmlns:xlink="http://www.w3.org/1999/xlink">
<path d="M36.595,4.565L36.595,8.965L38.795,8.965L38.795,13.365L36.595,13.365L36.595,17.765L3.595,17.765L3.595,4.565L36.595,4.565ZM37.695,0.165L2.495,0.165C0.672,0.165 -0.805,1.642 -0.805,3.465L-0.805,18.865C-0.805,20.688 0.672,22.165 2.495,22.165L37.695,22.165C39.518,22.165 40.995,20.688 40.995,18.865L40.995,17.765L41.545,17.765C42.456,17.765 43.195,17.026 43.195,16.115L43.195,6.215C43.195,5.304 42.456,4.565 41.545,4.565L40.995,4.565L40.995,3.465C40.995,1.642 39.518,0.165 37.695,0.165ZM27.795,6.765L5.795,6.765L5.795,15.565L27.795,15.565L27.795,6.765Z" transform="rotate(0 21.195 11.165)" fill="#000000"/>
</svg>
