<svg width="44" height="32" viewBox="0 0 44 32" fill="none" xmlns="http://www.w3.org/2000/svg" xmlns:xlink="http://www.w3.org/1999/xlink">
<path d="M43.485,8.213C31.305,-3.053 12.361,-3.049 0.185,8.213C-0.273,8.637 -0.282,9.354 0.161,9.793L2.515,12.128C2.937,12.548 3.616,12.557 4.055,12.154C14.087,2.964 29.582,2.962 39.616,12.154C40.054,12.557 40.734,12.547 41.156,12.128L43.51,9.793C43.952,9.354 43.943,8.637 43.485,8.213ZM21.835,21.765C19.405,21.765 17.435,23.735 17.435,26.165C17.435,28.595 19.405,30.565 21.835,30.565C24.265,30.565 26.235,28.595 26.235,26.165C26.235,23.735 24.265,21.765 21.835,21.765ZM35.768,16.018C27.844,9.011 15.817,9.018 7.901,16.018C7.427,16.438 7.412,17.166 7.862,17.61L10.23,19.947C10.642,20.354 11.307,20.381 11.746,20.002C17.517,15.012 26.166,15.023 31.923,20.002C32.363,20.381 33.027,20.354 33.439,19.947L35.807,17.61C36.258,17.166 36.242,16.437 35.768,16.018L35.768,16.018Z" transform="rotate(0 21.835 15.165)" fill="#000000"/>
</svg>
